<?xml version="1.0" encoding="UTF-8" standalone="no"?>
<svg width="236px" height="236px" viewBox="0 0 236 236" version="1.1" xmlns="http://www.w3.org/2000/svg" xmlns:xlink="http://www.w3.org/1999/xlink">
    <!-- Generator: Sketch 41.2 (35397) - http://www.bohemiancoding.com/sketch -->
    <title>termite_logo</title>
    <desc>Created with Sketch.</desc>
    <defs>
        <rect id="path-1" x="-35.1151853" y="108.938885" width="298.13811" height="10.0299706"></rect>
        <mask id="mask-2" maskContentUnits="userSpaceOnUse" maskUnits="objectBoundingBox" x="-6" y="-6" width="310.13811" height="22.0299706">
            <rect x="-41.1151853" y="102.938885" width="310.13811" height="22.0299706" fill="white"></rect>
            <use xlink:href="#path-1" fill="black"></use>
        </mask>
        <rect id="path-3" x="0" y="0" width="226" height="226"></rect>
        <mask id="mask-4" maskContentUnits="userSpaceOnUse" maskUnits="objectBoundingBox" x="0" y="0" width="226" height="226" fill="white">
            <use xlink:href="#path-3"></use>
        </mask>
    </defs>
    <g id="Page-1" stroke="none" stroke-width="1" fill="none" fill-rule="evenodd">
        <g id="Desktop" transform="translate(-96.000000, -348.000000)">
            <g id="termite_logo" transform="translate(100.000000, 352.000000)">
                <polygon id="Rectangle-10" fill="#68A225" transform="translate(64.594847, 79.967803) rotate(42.000000) translate(-64.594847, -79.967803) " points="60.7491268 77.1250895 63.6715278 80.5966776 70.0134352 80.0894055 70.0134352 82.1010956 63.0202745 82.8105166 59.1762595 78.5413055"></polygon>
                <polygon id="Rectangle-10" fill="#68A225" transform="translate(71.486103, 72.354098) scale(1, -1) rotate(-41.000000) translate(-71.486103, -72.354098) " points="66.4041495 69.465432 71.1434007 73.0289256 77.4853081 72.5216535 77.4853081 74.5333436 70.4921474 75.2427646 67.4064007 71.538558 66.2408278 71.7272233 65.4868974 71.6727828"></polygon>
                <polygon id="Rectangle-9" fill="#68A225" points="89 149 101.637882 135.61712 106.200857 139.723797 97 149 97.5312047 174.174258 90.4585936 181.703167 85.4393212 176.227597 89.3178499 172.349068"></polygon>
                <polygon id="Rectangle-9" fill="#68A225" transform="translate(150.220683, 103.781343) scale(1, -1) rotate(89.000000) translate(-150.220683, -103.781343) " points="143.400594 94.1211998 156.038476 80.7383198 160.601451 84.8449972 151.400594 94.1211998 151.931799 119.295458 144.859188 126.824366 139.839915 121.348796 143.718444 117.470268"></polygon>
                <path d="M135,112 L153.199499,112 L171.770808,129.827848 L185.140323,130.14155 C185.140323,130.14155 183.394539,131.085004 184.684025,129.473146 C185.973512,127.861288 187.878108,126.719319 187.878108,126.719319 L191.641928,132.31799 L185.368472,139.495649 L170.082506,138.354905 L150.918011,120 L135,120 L135,112 Z" id="Rectangle-8" fill="#68A225"></path>
                <polygon id="Rectangle-4" fill="#68A225" points="104 141 111 141 112.132724 160.485333 130.612773 177.596489 129.700178 194.707645 124.224608 200.411364 118.977187 193.79505 122.627567 191.285414 122.627567 181.703167 103.91937 162.994969"></polygon>
                <polygon id="Rectangle-2" fill="#68A225" points="49.3712927 112.116222 54.244842 108.367338 66.8036035 108.367338 81.0493628 122.050765 98.6691178 120.738655 99.2314504 128.9862 78.0502556 130.485754 64.1793847 115.490218 56.8690608 115.490218 53.8699536 117.36466"></polygon>
                <path d="M104.654797,57.8064147 L109.240863,62.5453496 C109.240863,62.5453496 107.171004,64.3160199 106.94783,65.7555958 C106.848696,66.3950569 107.253568,72.1635481 107.253568,72.1635481 L120.935332,85.8453117 L119.633949,103.379771 L113.521192,99.5270753 L114.132667,89.7434678 L100.527338,76.902483 L100.374469,61.3223986 L104.654797,57.8064147 Z" id="Rectangle-3" fill="#68A225"></path>
                <path d="M95.9935986,61.4519708 L116.574679,76.4666596 L116.5399,92.5301723 L120.063899,94.8013815 L149.410059,129.096189 L155.744863,137.38389 L154.72186,141.81952 L162.960818,152.146588 C162.960818,152.146588 161.936676,157.482816 162.624445,160.263612 C163.312213,163.044407 164.836909,162.200904 164.986905,164.176649 C165.101934,165.691804 164.668879,168.859474 164.620049,169.795999 C164.611843,169.953366 166.369105,173.011582 166.356846,175.02299 C166.344586,177.034397 164.542482,182.21842 164.542482,182.21842 L160.851129,193.355711 L155.456782,198.280132 C155.456782,198.280132 148.445382,197.315945 145.501551,195.674409 C144.376012,195.046787 138.017271,193.058433 133.445986,189.977492 C128.874702,186.89655 119.621481,178.297688 119.621481,178.297688 L115.6107,169.285012 C115.6107,169.285012 115.399453,167.196326 115.058587,166.324837 C114.709831,165.433176 109.882952,162.389121 109.882952,162.389121 C109.882952,162.389121 110.075301,160.50685 109.054782,157.948858 C108.481186,156.511104 107.733552,154.340073 105.842399,153.439566 C104.739574,152.914435 105.370631,147.419533 102.177605,136.708428 C98.9749587,125.96505 92.9407066,110.083193 92.9407066,110.083193 L93.5938956,105.621722 L77.1292114,95.6674046 L77.1292114,72.8571154 L95.9935986,61.4519708 Z" id="Polygon" fill="#68A225" transform="translate(121.743060, 129.866051) rotate(-16.000000) translate(-121.743060, -129.866051) "></path>
                <path d="M58.0894311,48.7394177 L99.5106966,49.5624863 C99.5106966,49.5624863 106.63981,50.0518347 107.581534,53.0106539 C108.523258,55.9694731 102.558222,59.1375583 102.558222,59.1375583 L97.0223862,57.2451854 L58.0894311,57.3734308 L58.0894311,48.7394177 Z" id="Rectangle" fill="#68A225" transform="translate(82.885896, 53.938488) rotate(68.000000) translate(-82.885896, -53.938488) "></path>
                <polygon id="Rectangle-7" fill="#68A225" points="23.6675177 79.7083034 58.5951693 93 76 93 76 101 58.3921016 101.030416 21.4337725 86.8156744"></polygon>
                <g id="square">
                    <g id="Rectangle-6" transform="translate(113.953870, 113.953870) rotate(-45.000000) translate(-113.953870, -113.953870) ">
                        <use fill="#68A225" fill-rule="evenodd" xlink:href="#path-1"></use>
                        <use stroke="#FFFFFF" mask="url(#mask-2)" stroke-width="12" xlink:href="#path-1"></use>
                    </g>
                    <use id="Rectangle-5" stroke="#68A225" mask="url(#mask-4)" stroke-width="20" xlink:href="#path-3"></use>
                </g>
            </g>
        </g>
    </g>
</svg>